#!OML:ASF F:\VICON\USERDATA\INSTALL\Justin_Nancy\Justin_Nancy.ASF
:FULLY-SPECIFIED
:DEGREES
1
root 0.756533 17.7553 -15.5943 5.74924 -2.99135 -1.07545
lowerback 3.68774 -0.104031 -0.428745
upperback -1.05329 -0.0735022 2.87076
thorax -3.14978 0.000101698 3.20721
lowerneck -15.7315 -4.5027 -10.9931
upperneck 19.3832 -4.85284 6.25821
head 9.11548 -2.43035 3.35391
rclavicle 5.71506e-015 1.27222e-014
rhumerus -33.9924 -9.67941 -78.5422
rradius 33.0579
rwrist 4.77175
rhand -11.9522 13.1717
rfingers 7.12502
rthumb 14.103 -16.3297
lclavicle 5.71506e-015 1.27222e-014
lhumerus -35.4414 13.6009 82.227
lradius 30.7797
lwrist -4.08401
lhand -20.8234 18.9887
lfingers 7.12502
lthumb 5.5449 48.8962
rfemur -10.4001 5.35963 19.4721
rtibia 20.9547
rfoot -11.0463 -7.90449
rtoes 7.96388
lfemur -11.9626 -4.64491 -16.9718
ltibia 23.7973
lfoot -13.5897 10.0124
ltoes -2.22028
2
root 0.756935 17.752 -15.5971 5.68395 -2.99963 -1.07537
lowerback 3.74375 -0.100411 -0.397224
upperback -1.01743 -0.0681467 2.84119
thorax -3.14461 0.00151888 3.15846
lowerneck -15.7249 -4.53404 -10.8955
upperneck 19.3149 -4.91018 6.21629
head 9.09229 -2.45357 3.31477
rclavicle -6.06293e-015 -3.97569e-015
rhumerus -33.9167 -9.81059 -78.5435
rradius 32.9208
rwrist 4.88042
rhand -11.9484 13.5341
rfingers 7.12502
rthumb 14.1068 -15.967
lclavicle -6.06293e-015 -3.97569e-015
lhumerus -35.3715 13.5306 82.2326
lradius 30.7377
lwrist -4.01313
lhand -21.1967 18.1591
lfingers 7.12502
lthumb 5.18443 48.0757
rfemur -10.3744 5.3446 19.4805
rtibia 21.0095
rfoot -10.9922 -7.89706
rtoes 8.04775
lfemur -11.8947 -4.73604 -16.9725
ltibia 23.7632
lfoot -13.5772 10.0873
ltoes -1.96107
3
root 0.756453 17.7513 -15.6027 5.7006 -2.99887 -1.1128
lowerback 3.76518 -0.086306 -0.335303
upperback -1.02353 -0.0461594 2.83043
thorax -3.16426 0.0114064 3.1111
lowerneck -15.6581 -4.5331 -10.9113
upperneck 19.2994 -4.92626 6.2795
head 9.07811 -2.4566 3.33794
rclavicle 3.62782e-015 -2.22639e-014
rhumerus -33.9016 -10.0115 -78.4799
rradius 32.8612
rwrist 5.03348
rhand -11.9739 13.8392
rfingers 7.12502
rthumb 14.0822 -15.6637
lclavicle 3.62782e-015 -2.22639e-014
lhumerus -35.2541 13.4907 82.2449
lradius 30.5856
lwrist -4.09651
lhand -21.2634 17.7891
lfingers 7.12502
lthumb 5.12004 47.7073
rfemur -10.4564 5.36124 19.5215
rtibia 21.0765
rfoot -10.9772 -7.90316
rtoes 8.00507
lfemur -11.9405 -4.68012 -16.9315
ltibia 23.7149
lfoot -13.4729 10.0939
ltoes -2.57146
4
root 0.754769 17.753 -15.6037 5.70021 -3.02421 -0.919476
lowerback 3.78297 -0.076553 -0.559149
upperback -1.05772 -0.0450061 2.77589
thorax -3.20962 0.0165489 3.18125
lowerneck -15.6292 -4.51825 -10.8992
upperneck 19.3405 -4.91899 6.30297
head 9.08642 -2.4509 3.34596
rclavicle 2.28602e-015 1.19271e-014
rhumerus -33.9877 -9.96639 -78.482
rradius 32.98
rwrist 4.87053
rhand -11.8966 13.6455
rfingers 7.12502
rthumb 14.1567 -15.8522
lclavicle 2.28602e-015 1.19271e-014
lhumerus -35.1912 13.4922 82.2168
lradius 30.394
lwrist -4.1177
lhand -21.3049 17.5879
lfingers 7.12502
lthumb 5.07995 47.507
rfemur -10.4658 5.36722 19.3103
rtibia 21.0752
rfoot -11.0288 -7.8853
rtoes 7.88604
lfemur -11.9031 -4.64792 -17.1409
ltibia 23.703
lfoot -13.5073 10.0656
ltoes -2.61425
5
root 0.753492 17.7548 -15.6039 5.68374 -3.0696 -0.869662
lowerback 3.85477 -0.0693993 -0.634713
upperback -1.08331 -0.0382443 2.77131
thorax -3.27698 0.0222881 3.21945
lowerneck -15.7329 -4.51209 -10.8941
upperneck 19.3837 -4.90009 6.29684
head 9.11817 -2.44108 3.34485
rclavicle -4.91992e-015 7.15625e-015
rhumerus -34.0066 -9.88558 -78.5119
rradius 33.0587
rwrist 4.74498
rhand -11.9903 13.3023
rfingers 7.12502
rthumb 14.0664 -16.2017
lclavicle -4.91992e-015 7.15625e-015
lhumerus -35.2549 13.3578 82.2556
lradius 30.4596
lwrist -3.98135
lhand -21.2613 17.9751
lfingers 7.12502
lthumb 5.12202 47.8932
rfemur -10.4286 5.41896 19.2506
rtibia 21.033
rfoot -11.0616 -7.87987
rtoes 7.96843
lfemur -11.8717 -4.637 -17.1949
ltibia 23.7223
lfoot -13.5218 10.0797
ltoes -2.55702
6
root 0.752575 17.7559 -15.6036 5.70879 -3.05435 -1.05725
lowerback 3.88846 -0.0954315 -0.448865
upperback -1.1085 -0.061093 2.82022
thorax -3.32074 0.00825031 3.16722
lowerneck -15.8258 -4.51977 -10.8299
upperneck 19.4182 -4.91129 6.26698
head 9.14551 -2.44355 3.32168
rclavicle -1.42628e-014 -3.89618e-014
rhumerus -34.0033 -9.87566 -78.5441
rradius 33.0559
rwrist 4.81842
rhand -11.9589 13.0562
rfingers 7.12502
rthumb 14.0966 -16.4456
lclavicle -1.42628e-014 -3.89618e-014
lhumerus -35.2992 13.2943 82.264
lradius 30.5002
lwrist -3.99912
lhand -21.3983 18.16
lfingers 7.12502
lthumb 4.98977 48.0812
rfemur -10.4158 5.46147 19.463
rtibia 20.9818
rfoot -11.0467 -7.94355
rtoes 8.14294
lfemur -11.9219 -4.57798 -16.9878
ltibia 23.7413
lfoot -13.4573 10.0743
ltoes -2.88606
